<?xml version="1.0" standalone="no"?>
<!DOCTYPE svg PUBLIC "-//W3C//DTD SVG 20010904//EN"
 "http://www.w3.org/TR/2001/REC-SVG-20010904/DTD/svg10.dtd">
<svg version="1.0" xmlns="http://www.w3.org/2000/svg"
 width="646.000000pt" height="861.000000pt" viewBox="0 0 646.000000 861.000000"
 preserveAspectRatio="xMidYMid meet">

<g transform="translate(0.000000,861.000000) scale(0.100000,-0.100000)"
fill="#000000" stroke="none">
<path d="M0 4305 l0 -4305 3230 0 3230 0 0 4305 0 4305 -3230 0 -3230 0 0
-4305z m3830 485 c0 -5 -4 -10 -9 -10 -6 0 -13 5 -16 10 -3 6 1 10 9 10 9 0
16 -4 16 -10z m-696 -1015 c3 -8 -2 -22 -11 -31 -15 -14 -17 -14 -25 0 -5 8
-15 13 -23 10 -17 -7 -18 -3 -9 20 8 20 60 21 68 1z m139 9 c-8 -4 -7 -14 5
-35 15 -26 15 -31 2 -39 -8 -5 -19 -10 -23 -10 -13 0 -20 29 -11 48 4 9 6 23
5 30 -1 6 6 12 16 11 10 0 13 -3 6 -5z m-103 -28 c0 -2 -7 -9 -15 -16 -12 -10
-15 -10 -15 4 0 9 7 16 15 16 8 0 15 -2 15 -4z m-25 -56 c-6 -10 -55 -19 -55
-11 0 4 5 12 11 18 12 12 52 6 44 -7z m-67 -22 c-6 -18 -25 -20 -31 -3 -5 10
0 15 14 15 12 0 19 -5 17 -12z m3192 -798 c0 -11 -4 -20 -10 -20 -5 0 -10 9
-10 20 0 11 5 20 10 20 6 0 10 -9 10 -20z m-1590 -1676 c0 -13 -7 -15 -34 -11
-31 5 -36 3 -45 -24 -11 -32 -8 -35 39 -41 32 -4 29 -22 -5 -26 -15 -2 -25 2
-25 9 0 26 -18 -7 -23 -43 l-6 -38 48 0 c47 0 93 23 114 57 4 7 12 13 18 13 5
0 31 11 59 24 27 13 51 21 54 18 12 -12 5 -22 -15 -22 -18 0 -74 -31 -89 -50
-14 -17 -101 -70 -115 -70 -8 0 -19 -9 -23 -20 -7 -18 -30 -36 -206 -157 -115
-80 -139 -93 -178 -93 -68 0 -104 72 -79 159 8 31 31 40 31 12 0 -26 44 -55
84 -57 17 -1 54 9 82 22 28 13 54 24 58 24 3 0 23 11 44 24 20 14 48 28 62 31
25 6 26 9 36 129 6 68 14 128 18 134 4 7 27 12 52 12 34 0 44 -4 44 -16z
m-130 -4 c0 -5 -7 -30 -16 -56 -11 -33 -14 -63 -9 -110 5 -42 4 -64 -3 -64
-26 0 -34 134 -12 185 12 27 15 35 19 50 2 9 21 5 21 -5z m-71 -77 c-3 -79
-17 -153 -30 -153 -12 0 -11 47 1 134 10 66 16 86 26 86 3 0 4 -30 3 -67z
m-63 -62 c-8 -57 -17 -106 -20 -109 -16 -15 -18 16 -7 95 17 123 20 138 32
126 6 -6 4 -47 -5 -112z m-36 95 c0 -7 -5 -38 -11 -67 -6 -30 -11 -63 -11 -74
1 -19 0 -19 -9 -2 -10 17 -4 130 8 150 7 12 23 8 23 -7z m-76 -58 c-4 -24 -10
-47 -15 -52 -5 -6 -9 -28 -9 -51 0 -23 -7 -50 -15 -61 -14 -18 -14 -18 -15 9
0 29 28 176 36 189 14 22 24 3 18 -34z m31 -104 c7 -48 3 -60 -14 -49 -13 8
-15 95 -2 95 5 0 12 -21 16 -46z"/>
</g>
</svg>
