<?xml version="1.0" standalone="no"?>
<!DOCTYPE svg PUBLIC "-//W3C//DTD SVG 20010904//EN"
 "http://www.w3.org/TR/2001/REC-SVG-20010904/DTD/svg10.dtd">
<svg version="1.0" xmlns="http://www.w3.org/2000/svg"
 width="512.000000pt" height="512.000000pt" viewBox="0 0 512.000000 512.000000"
 preserveAspectRatio="xMidYMid meet">

<g transform="translate(0.000000,512.000000) scale(0.100000,-0.100000)"
fill="#000000" stroke="none">
<path d="M3735 4157 c-22 -8 -51 -19 -65 -26 -14 -7 -269 -257 -567 -554
l-543 -542 -532 531 c-348 346 -550 541 -583 560 -46 26 -58 29 -145 29 -84 0
-101 -3 -145 -27 -67 -35 -140 -110 -173 -178 -22 -46 -27 -68 -27 -135 0 -67
5 -88 27 -131 21 -39 160 -184 565 -587 l538 -536 -536 -538 c-614 -616 -595
-592 -587 -736 5 -97 33 -158 106 -232 71 -71 140 -100 237 -100 67 0 88 5
131 27 38 20 187 163 587 565 l536 538 543 -542 c603 -603 584 -587 714 -587
60 0 81 5 136 32 130 64 208 184 208 320 0 128 10 115 -588 715 l-536 537 545
548 c608 609 584 579 584 717 0 59 -5 81 -32 136 -59 119 -173 198 -297 205
-34 2 -79 -2 -101 -9z"/>
</g>
</svg>
