<?xml version="1.0" standalone="no"?>
<!DOCTYPE svg PUBLIC "-//W3C//DTD SVG 20010904//EN"
 "http://www.w3.org/TR/2001/REC-SVG-20010904/DTD/svg10.dtd">
<svg version="1.0" xmlns="http://www.w3.org/2000/svg"
 width="1200.000000pt" height="1200.000000pt" viewBox="0 0 1200.000000 1200.000000"
 preserveAspectRatio="xMidYMid meet">

<g transform="translate(0.000000,1200.000000) scale(0.100000,-0.100000)"
fill="#000000" stroke="none">
<path d="M1350 9734 c-297 -64 -524 -292 -584 -586 -83 -402 181 -798 586
-882 70 -15 507 -16 4648 -16 4140 0 4578 2 4648 16 197 41 370 158 477 324
80 123 112 220 122 370 23 367 -234 699 -599 774 -70 14 -520 16 -4655 15
-3885 0 -4588 -3 -4643 -15z"/>
<path d="M1350 6734 c-297 -64 -524 -292 -584 -586 -83 -402 181 -798 586
-882 70 -15 507 -16 4648 -16 4140 0 4578 2 4648 16 197 41 370 158 477 324
80 123 112 220 122 370 23 367 -234 699 -599 774 -70 14 -520 16 -4655 15
-3885 0 -4588 -3 -4643 -15z"/>
<path d="M1350 3734 c-297 -64 -524 -292 -584 -586 -83 -402 181 -798 586
-882 70 -15 507 -16 4648 -16 4140 0 4578 2 4648 16 197 41 370 158 477 324
80 123 112 220 122 370 23 367 -234 699 -599 774 -70 14 -520 16 -4655 15
-3885 0 -4588 -3 -4643 -15z"/>
</g>
</svg>
