<?xml version="1.0" standalone="no"?>
<!DOCTYPE svg PUBLIC "-//W3C//DTD SVG 20010904//EN"
 "http://www.w3.org/TR/2001/REC-SVG-20010904/DTD/svg10.dtd">
<svg version="1.0" xmlns="http://www.w3.org/2000/svg"
 width="443.000000pt" height="953.000000pt" viewBox="0 0 443.000000 953.000000"
 preserveAspectRatio="xMidYMid meet">

<g transform="translate(0.000000,953.000000) scale(0.100000,-0.100000)"
fill="#000000" stroke="none">
<path d="M0 9400 l0 -130 75 0 c74 0 75 0 69 -24 -5 -20 1 -26 40 -45 59 -29
133 -36 226 -22 110 17 147 50 87 79 -16 8 525 11 1850 11 l1872 1 -6 -30 c-5
-27 -3 -30 20 -30 15 0 41 13 60 30 29 25 43 30 86 30 l51 0 0 130 0 130
-2215 0 -2215 0 0 -130z"/>
<path d="M0 8975 l0 -46 38 7 c34 6 62 26 62 46 0 9 -27 21 -72 32 -27 6 -28
5 -28 -39z"/>
<path d="M710 8986 c-14 -14 -12 -52 3 -64 36 -29 239 -34 281 -7 32 21 33 43
4 54 -54 20 -272 33 -288 17z"/>
<path d="M3814 8799 c-14 -23 19 -34 108 -35 51 -1 101 2 112 6 20 8 19 9 -4
10 -14 1 -44 1 -67 0 -23 -1 -50 3 -60 8 -31 16 -82 22 -89 11z"/>
<path d="M3281 8756 c-19 -23 14 -28 35 -5 16 18 16 19 -3 19 -11 0 -26 -6
-32 -14z"/>
<path d="M2400 8708 c-47 -4 -112 -9 -145 -12 -128 -12 -521 -18 -545 -8 -14
5 -38 6 -55 1 -42 -11 -153 -14 -198 -4 -47 10 -77 -13 -77 -58 0 -27 2 -29
28 -23 24 7 88 19 135 28 20 3 20 3 31 -309 3 -86 8 -116 20 -128 23 -24 20
-42 -14 -67 -24 -18 -30 -29 -30 -61 0 -21 5 -47 11 -59 11 -21 27 -21 399 -3
374 19 374 19 413 56 18 16 42 39 55 51 12 11 20 23 18 26 -11 11 -86 12 -86
1 0 -6 9 -9 20 -6 23 6 37 -8 15 -17 -8 -3 -27 1 -42 9 -38 20 -66 19 -105 -4
-31 -18 -37 -19 -92 -6 -33 8 -63 20 -67 27 -16 24 -9 57 14 73 22 17 21 17
-16 13 -33 -4 -38 -2 -34 14 3 10 1 21 -4 24 -14 9 10 34 32 34 15 0 19 8 19
40 0 35 4 41 35 56 19 9 35 20 35 25 0 4 -16 11 -35 15 -20 3 -35 12 -35 20 0
19 26 18 34 -2 5 -12 14 -15 35 -11 29 6 29 5 24 -27 -4 -29 -1 -37 21 -51 34
-22 89 -23 110 -2 19 19 32 21 41 8 7 -13 98 -9 107 4 4 5 8 -3 8 -19 0 -23 3
-26 14 -17 11 10 15 8 19 -6 3 -10 5 19 6 64 1 57 -3 83 -11 86 -9 4 -9 6 -1
6 16 1 4 38 -14 45 -19 8 -33 -1 -33 -21 0 -9 6 -13 15 -9 16 6 20 -10 9 -38
-9 -24 -29 -19 -49 10 -14 22 -15 28 -4 35 11 7 8 15 -13 34 -16 13 -28 29
-28 35 0 5 -10 10 -22 11 -46 1 23 21 97 27 68 7 70 8 73 36 2 18 11 30 23 33
10 3 19 11 19 17 0 14 -50 15 -180 4z m-340 -203 c0 -8 -6 -15 -13 -15 -8 0
-14 7 -14 15 0 8 6 15 14 15 7 0 13 -7 13 -15z m30 -15 c0 -5 -5 -10 -11 -10
-5 0 -7 5 -4 10 3 6 8 10 11 10 2 0 4 -4 4 -10z m293 -19 c-23 -28 -53 -28
-53 0 0 16 5 20 19 16 10 -2 25 -1 32 4 21 13 22 3 2 -20z m-78 -1 c-3 -5 -12
-10 -18 -10 -7 0 -6 4 3 10 19 12 23 12 15 0z m-275 -16 c0 -9 -5 -14 -12 -12
-18 6 -21 28 -4 28 9 0 16 -7 16 -16z m266 -23 c-10 -15 -55 -19 -60 -5 -4 10
4 14 30 14 19 0 33 -4 30 -9z m132 -3 c-7 -19 -38 -22 -38 -4 0 10 9 16 21 16
12 0 19 -5 17 -12z m-353 -33 c0 -28 -3 -29 -46 -20 l-30 7 22 19 c31 27 55
25 54 -6z m432 -12 c-3 -10 -5 -4 -5 12 0 17 2 24 5 18 2 -7 2 -21 0 -30z"/>
<path d="M3515 8658 c-53 -51 -65 -68 -46 -68 10 0 121 104 121 114 0 16 -24
2 -75 -46z"/>
<path d="M3408 8641 c-18 -16 -29 -33 -25 -38 5 -4 15 1 22 12 8 11 22 28 31
38 28 28 7 19 -28 -12z"/>
<path d="M4414 8551 c4 -5 -8 -21 -25 -35 -20 -17 -25 -26 -15 -26 9 0 25 9
36 20 21 21 27 50 9 50 -5 0 -8 -4 -5 -9z"/>
<path d="M4210 8454 c0 -8 5 -12 10 -9 6 3 10 10 10 16 0 5 -4 9 -10 9 -5 0
-10 -7 -10 -16z"/>
<path d="M2296 8323 c5 -5 12 -12 16 -18 4 -6 8 -2 8 8 0 9 -7 17 -17 17 -9 0
-12 -3 -7 -7z"/>
<path d="M2360 8321 c0 -5 9 -7 20 -4 11 3 20 7 20 9 0 2 -9 4 -20 4 -11 0
-20 -4 -20 -9z"/>
<path d="M2448 8312 c-22 -4 -24 -42 -3 -42 16 0 30 23 23 38 -1 4 -11 6 -20
4z"/>
<path d="M2245 8300 c-3 -5 1 -10 9 -10 9 0 16 5 16 10 0 6 -4 10 -9 10 -6 0
-13 -4 -16 -10z"/>
<path d="M4410 8230 c8 -14 8 -20 0 -20 -6 0 -8 -4 -5 -10 3 -5 -1 -10 -9 -10
-8 0 -24 -13 -36 -30 -13 -19 -33 -32 -56 -36 -19 -3 -37 -10 -40 -15 -3 -5
-10 -7 -15 -4 -8 5 -13 -14 -11 -37 1 -3 -5 -12 -13 -18 -10 -8 -15 -9 -15 -2
0 16 -57 72 -72 72 -7 0 -20 -5 -28 -10 -12 -7 -7 -12 23 -25 32 -13 37 -20
35 -42 -3 -25 0 -27 42 -30 25 -1 50 -5 57 -7 6 -3 25 0 42 7 24 9 36 9 51 -1
11 -6 31 -12 45 -12 l25 0 0 119 c0 97 -3 120 -15 125 -13 4 -14 2 -5 -14z"/>
<path d="M2290 8210 c0 -5 7 -10 16 -10 8 0 12 5 9 10 -3 6 -10 10 -16 10 -5
0 -9 -4 -9 -10z"/>
<path d="M3976 8185 c-3 -8 -1 -15 4 -15 6 0 10 7 10 15 0 8 -2 15 -4 15 -2 0
-6 -7 -10 -15z"/>
<path d="M2476 8174 c-4 -9 -4 -19 -1 -22 2 -3 7 3 11 12 4 9 4 19 1 22 -2 3
-7 -3 -11 -12z"/>
<path d="M2290 8165 c0 -8 4 -15 9 -15 5 0 11 7 15 15 3 9 0 15 -9 15 -8 0
-15 -7 -15 -15z"/>
<path d="M3750 8156 c0 -9 7 -16 15 -16 8 0 15 -4 15 -10 0 -13 -6 -13 -30 0
-28 15 -35 -6 -14 -45 17 -31 17 -35 1 -59 -10 -14 -22 -26 -27 -26 -6 0 -10
-4 -10 -10 0 -14 37 -12 68 4 52 27 63 49 60 112 l-3 59 -37 3 c-29 2 -38 0
-38 -12z"/>
<path d="M1355 8132 c-12 -9 -14 -122 -2 -122 4 0 6 -9 2 -19 -3 -11 -1 -22 5
-26 5 -3 10 1 10 10 0 8 6 24 12 35 10 15 10 25 2 38 -6 9 -9 31 -7 48 5 32
-5 48 -22 36z"/>
<path d="M2468 8076 c-22 -20 -25 -26 -14 -35 19 -16 62 2 69 28 10 38 -15 41
-55 7z"/>
<path d="M3506 7987 c-8 -12 -18 -34 -21 -49 -8 -33 6 -36 52 -14 26 13 97 45
133 60 8 3 -7 4 -33 1 -30 -3 -61 1 -83 10 -32 13 -35 13 -48 -8z"/>
<path d="M2532 7978 c-16 -16 -15 -29 2 -22 16 6 30 34 18 34 -5 0 -13 -5 -20
-12z"/>
<path d="M1152 7968 c5 -15 77 -22 126 -13 56 10 25 25 -54 25 -56 0 -75 -3
-72 -12z"/>
<path d="M1486 7973 c-3 -3 -3 -10 0 -14 7 -12 34 -11 34 0 0 11 -26 22 -34
14z"/>
<path d="M2480 7929 c0 -5 5 -7 10 -4 6 3 10 8 10 11 0 2 -4 4 -10 4 -5 0 -10
-5 -10 -11z"/>
<path d="M3430 7900 c0 -5 4 -10 9 -10 6 0 13 5 16 10 3 6 -1 10 -9 10 -9 0
-16 -4 -16 -10z"/>
<path d="M2415 7880 c-3 -5 -1 -10 4 -10 6 0 11 5 11 10 0 6 -2 10 -4 10 -3 0
-8 -4 -11 -10z"/>
<path d="M2375 7850 c-3 -5 1 -10 9 -10 9 0 16 5 16 10 0 6 -4 10 -9 10 -6 0
-13 -4 -16 -10z"/>
<path d="M3170 7829 c0 -5 5 -7 10 -4 6 3 10 8 10 11 0 2 -4 4 -10 4 -5 0 -10
-5 -10 -11z"/>
<path d="M2320 7805 c-19 -14 -50 -30 -69 -35 -30 -8 -39 -6 -57 11 -25 23
-55 19 -89 -11 -23 -21 -101 -44 -121 -36 -11 4 -12 10 -4 25 5 11 10 22 10
25 0 10 -28 7 -70 -6 -43 -14 -52 -32 -20 -41 43 -11 16 -24 -62 -31 -46 -4
-93 -13 -105 -21 -12 -8 -29 -15 -36 -15 -8 0 -22 -11 -31 -25 -10 -16 -26
-25 -42 -25 -14 0 -23 4 -19 9 3 5 1 12 -5 16 -18 11 -11 25 18 37 104 42 123
58 102 83 -9 11 -16 13 -24 5 -15 -15 -36 -12 -36 6 0 11 -6 14 -22 8 -13 -4
-30 -6 -38 -5 -8 1 -33 3 -55 5 -22 1 -48 6 -58 10 -12 6 -24 3 -37 -9 -11
-10 -28 -15 -40 -12 -14 4 -25 -2 -36 -18 -19 -30 -13 -41 28 -49 17 -3 39
-13 48 -21 11 -10 25 -12 51 -6 34 8 72 -6 75 -27 0 -4 4 -15 8 -24 5 -10 6
-25 2 -33 -3 -9 0 -15 9 -15 8 0 15 -7 15 -15 0 -18 -21 -20 -38 -3 -9 9 -19
7 -42 -10 -16 -12 -36 -22 -43 -22 -8 0 -22 -11 -31 -25 -19 -28 -38 -32 -56
-10 -19 23 -33 18 -26 -10 7 -29 -4 -32 -39 -9 -20 13 -26 14 -30 3 -4 -10
-19 -13 -48 -11 -32 3 -56 -3 -92 -22 -34 -19 -57 -25 -77 -21 -32 7 -97 -12
-115 -34 -20 -23 -16 -61 7 -69 19 -7 18 -10 -17 -40 -21 -18 -63 -52 -93 -75
-30 -24 -63 -56 -73 -73 -10 -16 -48 -74 -83 -129 -49 -76 -64 -107 -61 -128
2 -16 -6 -48 -19 -75 -13 -26 -24 -53 -24 -60 0 -7 -11 -35 -26 -63 -34 -69
-42 -185 -20 -294 10 -44 21 -84 27 -90 5 -5 9 -21 9 -37 0 -19 8 -33 26 -44
19 -13 25 -25 24 -48 -3 -48 -1 -58 10 -51 6 4 8 10 5 15 -3 5 18 35 46 67 28
32 55 61 58 65 3 4 11 -4 17 -17 10 -20 8 -28 -17 -57 -15 -18 -28 -41 -29
-50 0 -10 -5 -18 -11 -18 -7 0 -9 -10 -5 -27 4 -16 7 -37 7 -48 -2 -43 9 -65
32 -65 21 0 57 30 57 48 0 4 4 13 9 20 7 11 12 12 29 1 17 -10 23 -10 36 0 25
21 8 34 -35 27 -45 -7 -53 1 -33 38 7 16 14 37 14 47 0 23 18 25 27 3 4 -11
14 -14 34 -10 17 3 32 0 39 -9 7 -8 20 -15 29 -15 43 2 135 75 186 150 17 24
50 66 75 94 56 63 100 122 100 134 0 5 12 20 28 34 15 14 35 39 44 57 14 25
23 31 49 31 50 0 89 42 89 96 0 33 5 45 25 58 27 18 55 21 55 7 0 -5 17 -18
37 -28 21 -10 38 -26 39 -38 4 -26 40 -55 70 -55 15 0 43 -20 82 -58 32 -33
70 -62 84 -65 15 -4 43 -28 64 -53 21 -25 51 -52 68 -60 53 -24 100 -55 114
-75 7 -10 19 -16 27 -13 9 4 19 -6 28 -28 11 -27 23 -37 58 -47 59 -17 89 -38
89 -60 0 -10 17 -30 40 -45 25 -17 40 -34 40 -47 0 -12 11 -29 23 -39 18 -15
23 -26 19 -49 -4 -32 -2 -34 51 -45 20 -5 27 -12 27 -31 0 -14 5 -25 10 -25 6
0 10 -10 10 -22 0 -16 3 -19 9 -10 12 19 44 -34 38 -64 -9 -49 73 -83 233 -97
l45 -4 -3 70 c-2 38 1 74 6 79 16 16 52 -9 52 -37 0 -29 39 -59 64 -49 28 11
36 39 27 86 -5 23 -12 51 -16 61 -4 11 -3 17 5 17 6 0 14 -9 17 -20 8 -30 27
-19 33 19 6 41 22 43 35 5 5 -16 15 -35 22 -42 10 -10 11 -2 7 40 -2 29 -9 69
-14 88 -23 82 -6 76 45 -15 20 -36 39 -65 42 -65 3 0 3 20 0 45 -4 24 -3 46 1
49 5 3 23 -4 40 -14 18 -11 34 -15 37 -10 4 6 13 7 24 1 31 -17 44 2 36 55 -4
27 -13 60 -20 74 -21 43 -26 87 -10 100 11 9 17 5 28 -23 8 -19 42 -78 76
-130 34 -53 61 -107 61 -121 0 -14 5 -28 10 -31 6 -3 10 -18 11 -33 0 -15 4
-36 8 -46 6 -16 10 -14 24 17 10 20 28 49 41 64 40 48 45 67 45 159 1 150 5
197 19 202 7 2 15 -9 18 -28 11 -52 29 -27 36 51 9 87 4 121 -16 113 -15 -6
-40 29 -30 39 3 3 -3 33 -15 66 -12 34 -21 66 -21 72 0 6 -20 53 -44 103 -25
51 -57 128 -71 172 -15 43 -31 83 -36 89 -5 5 -9 22 -9 37 0 23 4 28 24 28 14
0 28 5 31 10 4 7 14 5 28 -5 29 -20 49 -19 45 3 -2 9 -9 16 -16 15 -7 -2 -9
17 -5 65 6 70 10 84 17 61 2 -8 8 -23 12 -34 7 -18 8 -17 12 8 5 39 28 28 24
-11 -2 -18 1 -32 6 -32 11 0 32 -45 32 -70 0 -10 -6 -21 -12 -23 -7 -3 1 -6
19 -6 37 -1 39 -21 -25 175 -22 66 -44 137 -47 158 -4 20 -11 39 -16 42 -5 3
-9 14 -9 25 0 31 -19 23 -84 -36 -34 -30 -80 -72 -103 -92 -24 -21 -49 -44
-57 -52 -12 -12 -21 -7 -63 35 -27 27 -71 68 -98 90 l-50 42 29 26 c25 24 28
32 23 68 -5 40 -22 61 -42 55 -5 -2 -12 -30 -15 -63 -4 -42 -9 -60 -20 -62 -8
-1 -44 19 -80 46 -79 59 -222 137 -270 147 -19 4 -67 22 -107 41 -40 19 -79
34 -86 34 -20 0 -51 36 -38 45 16 9 13 35 -3 35 -8 0 -16 -7 -20 -15 -9 -25
-36 -18 -36 10 l0 25 -56 -21 c-30 -12 -57 -19 -58 -17 -2 1 -7 11 -12 21 -9
16 -12 15 -44 -8z m-780 -84 c0 -5 -7 -11 -15 -15 -15 -5 -20 5 -8 17 9 10 23
9 23 -2z m2048 -428 c10 -30 8 -35 -14 -32 -4 0 -11 -5 -15 -13 -6 -8 -9 4 -9
33 0 70 17 76 38 12z m-2118 -279 c0 -8 -4 -12 -10 -9 -5 3 -10 10 -10 16 0 5
5 9 10 9 6 0 10 -7 10 -16z m-697 -921 c4 -22 2 -33 -8 -37 -20 -7 -31 39 -15
59 15 19 16 18 23 -22z"/>
<path d="M1360 7800 c0 -5 5 -10 11 -10 5 0 7 5 4 10 -3 6 -8 10 -11 10 -2 0
-4 -4 -4 -10z"/>
<path d="M3267 7801 c-17 -6 -17 -8 -3 -20 9 -7 16 -28 16 -46 0 -20 9 -42 25
-59 33 -36 32 -55 -5 -62 -40 -8 -55 -27 -35 -44 22 -18 51 -1 120 69 56 57
67 88 41 111 -8 6 -12 19 -9 27 5 13 0 15 -29 9 -23 -4 -45 -1 -64 9 -32 17
-32 16 -57 6z"/>
<path d="M1750 7780 c-6 -11 -7 -20 -3 -20 5 0 14 9 21 20 7 11 8 20 2 20 -5
0 -14 -9 -20 -20z"/>
<path d="M3435 7780 c3 -5 11 -10 16 -10 6 0 7 5 4 10 -3 6 -11 10 -16 10 -6
0 -7 -4 -4 -10z"/>
<path d="M43 7743 c-38 -4 -43 -7 -43 -28 0 -23 1 -24 35 -9 19 7 57 14 85 14
27 0 50 4 50 10 0 5 -10 9 -22 9 -13 0 -32 1 -43 4 -11 2 -39 2 -62 0z"/>
<path d="M259 7714 c34 -15 48 -13 36 5 -3 6 -21 11 -38 10 l-32 -1 34 -14z"/>
<path d="M3954 7681 c-23 -7 -21 17 -29 -343 -4 -194 -4 -197 17 -204 14 -4
25 -1 33 10 7 9 17 16 22 16 6 0 16 7 23 15 7 9 19 14 26 11 7 -3 20 6 28 20
18 26 46 32 46 10 0 -8 5 -18 10 -21 6 -4 10 7 10 24 0 17 -3 30 -7 30 -22 -4
-33 3 -33 20 0 20 37 54 51 46 10 -7 39 69 50 130 16 92 33 224 28 228 -7 7
-253 14 -275 8z"/>
<path d="M4322 7683 c-25 -5 -28 -11 -36 -58 -2 -16 -9 -54 -15 -84 -11 -53
-14 -147 -5 -124 3 7 12 9 20 6 7 -3 16 2 20 10 3 9 13 13 25 10 11 -3 21 1
25 11 8 21 24 21 24 -1 0 -15 3 -14 23 5 19 20 22 34 25 127 l4 105 -44 -1
c-23 -1 -53 -4 -66 -6z"/>
<path d="M0 7642 c0 -16 10 -21 51 -26 56 -8 79 -1 33 9 -16 4 -41 13 -56 21
-26 14 -28 14 -28 -4z"/>
<path d="M3753 7620 c-23 -17 -51 -47 -63 -67 -23 -40 -23 -49 16 -163 9 -25
25 -75 36 -112 12 -38 24 -68 28 -68 4 0 10 24 14 53 8 68 20 387 15 387 -3 0
-24 -14 -46 -30z"/>
<path d="M235 7630 c-27 -4 -60 -6 -72 -3 -30 7 -30 -13 0 -21 12 -3 47 -6 78
-6 43 0 58 4 63 16 11 28 16 27 -69 14z"/>
<path d="M1361 7616 c-7 -8 -8 -17 -3 -19 4 -3 13 3 20 14 14 22 0 26 -17 5z"/>
<path d="M0 7503 l0 -50 127 -6 c117 -5 129 -4 145 13 22 23 24 66 3 74 -8 3
-73 8 -145 12 l-130 7 0 -50z"/>
<path d="M85 7371 c-41 -5 -50 -9 -50 -26 0 -18 6 -20 62 -19 34 0 60 -3 57
-8 -3 -4 0 -8 5 -8 6 0 11 5 11 10 0 6 7 10 15 10 8 0 15 -4 15 -10 0 -5 9
-10 20 -10 11 0 20 6 20 14 0 21 19 30 34 17 10 -9 15 -8 20 4 3 8 7 18 8 21
4 9 -153 12 -217 5z"/>
<path d="M4050 7070 c20 -13 50 -13 50 0 0 6 -15 10 -32 10 -25 0 -29 -3 -18
-10z"/>
<path d="M3943 7053 c9 -2 25 -2 35 0 9 3 1 5 -18 5 -19 0 -27 -2 -17 -5z"/>
<path d="M106 6574 c-8 -32 -2 -40 40 -48 40 -9 67 14 55 47 -6 17 -17 23 -48
25 -37 3 -41 0 -47 -24z"/>
<path d="M3895 6453 c-9 -20 -33 -305 -34 -399 -1 -49 3 -64 19 -79 11 -10 23
-15 26 -12 8 7 33 343 34 440 0 59 -2 67 -19 67 -10 0 -22 -8 -26 -17z"/>
<path d="M4149 6429 c-6 -11 -13 -62 -15 -112 -2 -51 -9 -178 -15 -283 -12
-202 -8 -234 30 -234 9 0 28 -12 42 -27 24 -28 24 -28 27 -5 4 24 12 28 29 11
13 -13 33 -4 33 17 0 9 11 14 34 14 19 0 37 4 41 9 3 5 21 7 40 4 l35 -6 0
310 0 310 -27 0 c-16 0 -76 3 -135 7 -102 5 -108 5 -119 -15z m245 -505 c9 -8
16 -24 16 -35 0 -25 -32 -25 -55 1 -15 16 -15 22 -5 35 16 19 25 19 44 -1z"/>
<path d="M3717 6197 c-11 -29 -9 -43 4 -30 6 6 9 19 7 29 -3 18 -4 18 -11 1z"/>
<path d="M3856 5919 c-15 -42 -4 -89 24 -107 16 -10 19 -8 25 18 7 31 -3 96
-13 86 -3 -3 -11 -1 -18 5 -10 8 -15 8 -18 -2z"/>
<path d="M3680 5866 c0 -35 11 -45 36 -34 27 13 31 33 8 42 -26 10 -44 7 -44
-8z"/>
<path d="M712 5794 c-2 -48 6 -74 21 -74 12 1 61 89 54 97 -3 2 -20 6 -39 9
-34 6 -35 6 -36 -32z"/>
<path d="M3546 5814 c-4 -9 -4 -19 -1 -22 2 -3 7 3 11 12 4 9 4 19 1 22 -2 3
-7 -3 -11 -12z"/>
<path d="M3827 5758 c9 -18 23 -46 31 -62 13 -26 13 -30 -2 -41 -20 -15 -21
-44 0 -74 25 -34 34 -11 34 88 0 73 -3 86 -22 102 -11 11 -29 19 -39 19 -17 0
-17 -2 -2 -32z"/>
<path d="M3680 5756 c0 -14 5 -28 10 -31 6 -3 10 5 10 19 0 14 -4 28 -10 31
-6 3 -10 -5 -10 -19z"/>
<path d="M4106 5723 c-12 -13 -6 -53 9 -53 9 0 15 9 15 24 0 26 -12 40 -24 29z"/>
<path d="M784 5645 c-9 -22 8 -54 87 -160 37 -49 108 -152 159 -227 51 -76
109 -157 130 -180 28 -33 35 -48 29 -63 -14 -36 -9 -62 18 -101 21 -31 28 -55
32 -113 6 -70 8 -75 36 -91 28 -16 31 -21 41 -111 13 -107 18 -121 53 -168 63
-83 193 -124 397 -124 141 0 148 -4 109 -47 -33 -37 -48 -287 -19 -328 14 -20
23 -22 102 -20 62 1 98 6 125 20 20 10 37 20 37 22 0 2 -7 20 -15 39 -17 42
-20 123 -5 162 14 37 2 72 -31 92 -16 10 -32 26 -35 36 -4 14 -12 17 -29 13
-15 -4 -25 -1 -28 8 -4 9 -14 12 -25 9 -11 -2 -23 1 -27 7 -6 9 3 11 33 8 22
-2 40 -1 39 3 -2 7 79 71 112 88 19 11 21 9 21 -19 0 -54 21 -34 76 75 61 117
118 191 155 199 44 9 136 -23 143 -49 4 -12 9 -16 13 -9 13 17 41 24 51 11 8
-10 43 -130 70 -240 8 -31 26 -37 28 -9 1 9 2 21 3 25 1 5 23 -11 50 -35 33
-30 74 -54 123 -71 65 -24 87 -27 200 -27 131 0 170 8 268 53 25 12 51 27 58
34 7 7 17 13 21 13 31 0 119 132 145 216 4 13 21 25 46 33 33 10 42 19 64 67
14 31 26 65 26 75 0 11 7 19 15 19 8 0 15 5 15 12 0 6 3 9 6 5 3 -3 -1 -16
-10 -29 -9 -12 -16 -33 -16 -47 0 -22 3 -23 39 -18 51 6 88 34 96 72 4 17 9
38 11 48 4 13 -1 17 -20 17 -14 0 -28 -4 -31 -10 -3 -5 -17 -10 -31 -10 -23 0
-24 2 -18 53 4 35 1 66 -10 96 -9 24 -16 57 -16 74 0 16 -4 46 -10 66 -5 20
-17 77 -25 126 -42 230 -112 422 -142 391 -4 -3 -13 -41 -20 -84 -15 -83 -25
-160 -17 -127 28 110 53 86 80 -74 7 -47 21 -107 30 -134 16 -48 18 -72 15
-174 l-2 -53 -37 0 c-63 1 -227 36 -260 55 -24 14 -29 22 -20 32 7 9 7 17 -1
27 -19 23 -4 87 29 121 27 28 29 35 21 58 -8 19 -18 27 -35 27 -31 0 -56 9
-56 21 0 5 9 9 19 9 11 0 23 5 26 10 4 6 -10 10 -35 10 -23 0 -57 7 -76 16
-31 15 -37 15 -81 -1 -26 -9 -59 -23 -73 -30 -14 -7 -51 -19 -84 -26 l-59 -13
-33 36 c-30 33 -34 35 -48 20 -8 -10 -18 -29 -21 -45 -7 -26 -25 -48 -25 -29
0 6 -16 13 -35 16 -19 4 -43 18 -54 31 -10 14 -23 25 -28 25 -6 0 -18 9 -27
19 -15 16 -23 18 -47 9 -24 -8 -34 -7 -48 6 -10 9 -23 16 -29 16 -7 0 -12 7
-12 15 0 25 -34 23 -97 -6 -31 -14 -44 -27 -49 -47 -19 -83 -21 -87 -40 -87
-15 0 -20 8 -22 38 -2 24 -8 37 -17 37 -8 0 -22 11 -31 25 -19 29 -36 32 -58
10 -8 -8 -22 -15 -31 -15 -9 0 -24 -7 -32 -16 -9 -8 -24 -13 -34 -11 -10 3
-26 -3 -37 -13 -26 -24 -56 -29 -57 -10 0 11 -9 14 -31 12 -22 -2 -40 4 -62
23 -27 23 -37 25 -79 20 -34 -5 -57 -2 -78 9 -16 9 -37 16 -45 16 -25 -1 -61
-37 -54 -54 5 -13 -2 -16 -44 -16 -49 0 -73 -12 -52 -25 21 -13 -12 -37 -42
-31 -15 3 -28 2 -28 -2 1 -14 36 -47 63 -59 21 -10 27 -19 27 -43 0 -59 -14
-70 -84 -70 -47 0 -65 4 -70 15 -3 9 -12 12 -21 9 -9 -4 -14 -13 -11 -20 7
-19 -69 -39 -104 -27 -30 9 -150 137 -150 159 0 19 24 18 40 -1 7 -8 16 -15
21 -15 4 0 20 -11 35 -25 31 -28 64 -33 64 -9 0 16 -12 29 -137 142 -32 30
-122 117 -200 194 -112 110 -144 137 -149 123z m820 -686 c-10 -18 -70 -39
-108 -39 -33 0 -55 -14 -42 -27 3 -4 22 -7 42 -7 29 -1 46 -11 85 -50 27 -27
49 -54 49 -61 0 -6 14 -24 31 -39 21 -19 28 -33 24 -47 -5 -13 3 -28 24 -49
16 -16 32 -43 36 -58 5 -26 2 -30 -44 -51 -27 -13 -54 -20 -60 -17 -7 5 -11
-1 -11 -15 0 -12 -7 -27 -15 -33 -11 -8 -13 -19 -7 -41 7 -24 14 -30 43 -32
19 -1 52 -9 74 -17 25 -9 42 -11 46 -4 4 5 9 3 12 -5 7 -20 -87 -33 -127 -17
-15 5 -50 10 -77 10 -96 0 -173 53 -216 149 -20 46 -24 71 -25 156 -1 135 15
197 64 241 21 19 48 34 61 34 12 1 33 7 47 15 30 17 105 20 94 4z m1002 -11
c-4 -13 -8 -27 -9 -33 -5 -21 -19 -35 -35 -35 -48 1 -50 44 -4 73 39 24 56 22
48 -5z m-230 -17 l24 -19 -27 -7 c-26 -6 -43 6 -43 33 0 17 18 15 46 -7z
m1067 -33 c111 -31 122 -70 76 -248 -37 -139 -129 -275 -213 -313 -45 -22
-292 -43 -347 -30 -43 9 -43 10 46 17 50 4 100 8 113 9 44 4 26 22 -28 28 -30
3 -43 6 -29 7 14 1 37 12 51 25 l24 23 -26 60 c-15 33 -39 68 -54 77 -34 23
-33 35 5 67 29 23 31 29 22 56 -8 25 -6 33 16 56 40 41 81 95 81 106 0 14 24
22 48 15 30 -7 35 13 10 36 -12 12 -25 21 -30 21 -4 0 -8 4 -8 10 0 15 167 0
243 -22z m-1755 -35 c22 -20 39 -63 24 -63 -8 0 -95 45 -111 56 -1 1 0 7 4 13
10 17 61 13 83 -6z m1462 1 c0 -23 -20 -55 -31 -49 -10 7 -12 48 -2 58 12 13
33 7 33 -9z m-880 -30 c11 -29 13 -81 3 -70 -7 7 -33 76 -33 89 0 18 21 5 30
-19z m108 -23 c10 -6 2 -14 -26 -28 -38 -19 -41 -19 -45 -2 -9 32 37 52 71 30z
m205 -25 c7 -18 -1 -26 -27 -26 -28 0 -50 15 -42 29 10 16 63 14 69 -3z m-420
-115 c2 -10 1 -24 -3 -32 -4 -8 -3 -25 2 -39 l9 -25 15 27 c8 15 26 39 40 54
l27 26 -7 -29 c-22 -86 -106 -183 -195 -224 -36 -17 -75 -35 -86 -40 -11 -5
-44 -14 -74 -19 -56 -11 -96 -12 -73 -3 6 2 12 11 12 18 0 7 9 15 20 18 12 3
18 11 15 20 -4 9 11 25 44 47 28 17 51 35 51 39 0 14 168 181 183 181 8 0 17
-8 20 -19z m566 -81 c19 -28 58 -78 87 -111 47 -54 51 -64 42 -85 -12 -26 3
-54 28 -54 8 0 14 -4 14 -10 0 -5 -7 -10 -15 -10 -21 0 -166 80 -183 100 -29
35 -50 88 -56 144 -5 49 -4 61 11 71 24 18 33 12 72 -45z"/>
<path d="M770 5585 c-1 -5 -1 -20 -1 -31 2 -22 -24 -40 -34 -24 -11 18 -23 11
-18 -10 9 -35 30 -44 58 -26 14 9 25 22 25 29 -1 18 -28 74 -30 62z"/>
<path d="M4090 5545 c0 -14 5 -25 10 -25 6 0 10 11 10 25 0 14 -4 25 -10 25
-5 0 -10 -11 -10 -25z"/>
<path d="M591 5383 c0 -43 4 -87 8 -97 6 -17 10 -14 23 20 28 70 31 103 14
129 -9 14 -23 25 -31 25 -12 0 -15 -15 -14 -77z"/>
<path d="M713 5154 c-5 -11 -19 -20 -33 -22 -72 -7 -64 -117 15 -210 33 -37
55 -23 55 34 0 14 11 41 25 61 l24 37 -26 48 c-34 63 -50 76 -60 52z"/>
<path d="M0 5037 c0 -32 3 -34 44 -44 64 -14 166 1 189 29 10 11 14 25 10 29
-4 4 -61 10 -125 14 l-118 6 0 -34z"/>
<path d="M392 4974 c-21 -23 11 -54 52 -51 27 2 31 -1 34 -25 3 -23 -2 -30
-25 -39 -29 -11 -78 -6 -126 13 -20 8 -39 7 -70 -1 -29 -9 -50 -9 -68 -2 -14
5 -63 13 -108 17 l-82 7 2 -171 1 -170 48 -6 c26 -3 50 -9 54 -13 3 -4 16 -7
29 -9 12 -1 54 -9 92 -18 39 -9 84 -19 101 -22 l31 -6 11 82 c7 45 10 86 7 90
-9 14 6 38 26 43 12 3 19 14 19 30 0 14 5 29 11 33 9 5 10 -3 5 -28 -7 -39 12
-65 39 -54 12 4 15 -3 15 -34 0 -21 4 -41 9 -44 12 -8 24 180 17 274 -2 41 -5
83 -5 94 -1 14 -4 16 -13 8 -15 -12 -68 -4 -68 9 0 14 -24 10 -38 -7z m-229
-288 c40 -12 47 -12 62 3 16 15 18 14 32 -6 9 -13 26 -23 38 -23 12 0 28 -7
35 -16 11 -13 9 -20 -17 -46 -31 -31 -32 -31 -95 -21 -35 6 -67 8 -73 5 -5 -4
-36 -8 -67 -9 -51 -2 -57 -1 -55 16 5 33 65 111 85 111 5 0 29 -6 55 -14z"/>
<path d="M4213 4923 c-10 -3 -10 -8 1 -19 18 -18 32 -18 39 0 4 11 -16 30 -26
25 -1 0 -8 -3 -14 -6z"/>
<path d="M4160 4874 c0 -26 45 -84 65 -84 6 0 16 -9 23 -20 7 -11 17 -20 24
-20 6 0 21 -8 32 -19 12 -10 43 -21 74 -24 l52 -6 0 39 0 40 -55 0 c-31 0 -61
4 -68 10 -7 5 -25 21 -41 35 -16 14 -35 25 -42 25 -8 0 -21 11 -30 25 -21 32
-34 32 -34 -1z"/>
<path d="M4262 4888 c-20 -20 -13 -32 28 -51 39 -18 63 -22 113 -19 23 2 27 6
27 32 0 28 -2 30 -39 30 -22 0 -43 5 -46 10 -9 14 -68 13 -83 -2z"/>
<path d="M4047 4853 c-3 -5 3 -20 14 -33 l20 -25 -3 29 c-3 29 -21 45 -31 29z"/>
<path d="M4167 4764 c-16 -16 65 -104 96 -104 8 0 22 -11 31 -25 15 -22 24
-25 76 -25 59 0 60 0 60 29 0 33 -14 41 -69 41 -36 0 -97 25 -130 53 -23 21
-58 37 -64 31z"/>
<path d="M4035 4648 c-8 -27 -11 -78 -4 -78 15 0 40 52 34 70 -7 22 -24 26
-30 8z"/>
<path d="M3780 4625 c0 -8 9 -15 20 -15 11 0 20 7 20 15 0 8 -9 15 -20 15 -11
0 -20 -7 -20 -15z"/>
<path d="M4166 4633 c-3 -4 -6 -15 -6 -26 0 -14 5 -18 20 -14 11 3 23 1 26 -4
3 -5 0 -9 -5 -9 -6 0 -11 -7 -11 -15 0 -10 10 -15 30 -15 18 0 30 5 30 13 0
16 -75 79 -84 70z"/>
<path d="M2656 4245 c-21 -21 -20 -64 1 -145 14 -57 15 -69 2 -95 -12 -26 -20
-30 -60 -33 -51 -3 -70 -19 -86 -66 -11 -37 -29 -44 -38 -17 -4 14 1 30 14 47
27 35 26 65 -3 98 l-23 28 -34 -31 c-18 -17 -37 -31 -41 -31 -4 0 -11 -18 -14
-39 -4 -28 -13 -42 -31 -50 -18 -8 -23 -16 -18 -31 9 -28 -32 -52 -74 -44 -27
6 -38 2 -64 -23 -59 -54 -182 -123 -221 -123 -8 0 -35 -9 -60 -20 -32 -13 -46
-25 -46 -39 0 -11 -9 -40 -19 -64 -26 -59 -36 -133 -22 -150 7 -9 40 -14 98
-16 48 -1 89 -4 92 -6 2 -3 14 4 26 15 18 17 30 19 63 14 49 -8 62 -30 27 -46
-19 -9 -28 -9 -37 0 -17 17 -38 15 -38 -3 0 -8 4 -15 9 -15 5 0 20 -16 35 -34
24 -32 25 -36 10 -48 -9 -7 -31 -27 -49 -45 -26 -25 -34 -29 -39 -18 -7 18
-36 20 -36 2 0 -7 6 -19 12 -25 9 -9 9 -15 3 -20 -6 -4 -18 -19 -28 -34 -22
-35 -61 -35 -99 1 -58 56 -65 61 -86 61 -11 0 -25 8 -31 18 -15 26 -40 5 -62
-50 -10 -26 -29 -59 -41 -73 -13 -15 -25 -38 -28 -53 -4 -17 -11 -26 -21 -24
-9 1 -21 -9 -27 -23 -15 -33 -36 -33 -28 0 5 18 1 27 -14 35 -15 8 -19 18 -15
38 3 15 2 21 -1 14 -4 -10 -16 -4 -40 22 -19 20 -36 36 -38 36 -3 0 -6 -10 -8
-22 -2 -15 -11 -24 -26 -26 -18 -3 -23 2 -28 26 -4 19 -12 29 -22 28 -10 -1
-19 10 -23 29 -5 23 -7 25 -8 8 0 -13 -6 -23 -12 -23 -7 0 -9 10 -5 24 3 14 2
28 -4 31 -6 4 -10 -7 -10 -25 0 -30 -1 -31 -35 -24 -42 8 -46 -9 -14 -51 18
-22 28 -26 50 -21 32 6 32 7 29 -66 -2 -56 27 -113 84 -167 27 -27 39 -47 41
-71 2 -19 3 -38 4 -41 1 -4 10 -9 22 -12 11 -3 23 -15 26 -27 3 -12 12 -20 22
-18 23 5 60 -30 54 -52 -3 -10 3 -32 13 -49 17 -29 19 -29 36 -14 18 16 30 13
34 -10 1 -7 5 -19 8 -28 5 -10 -2 -20 -18 -29 -14 -7 -23 -17 -20 -22 3 -4 -2
-11 -10 -14 -12 -5 -15 -24 -14 -97 1 -108 -8 -197 -21 -210 -13 -13 -98 60
-173 151 -122 148 -212 310 -269 488 -18 54 -36 107 -41 116 -4 10 -8 28 -8
40 -1 13 -8 34 -16 48 -14 24 -15 22 -9 -35 10 -99 11 -130 0 -135 -8 -5 -20
29 -30 90 -21 124 -26 176 -21 245 3 44 8 121 12 170 5 68 3 99 -8 125 l-15
35 -20 -40 c-12 -22 -39 -57 -62 -77 -45 -40 -52 -58 -22 -58 27 0 33 -25 21
-89 -11 -62 -14 -141 -7 -196 1 -11 -2 -21 -8 -23 -13 -3 -27 156 -20 231 l5
58 -28 -3 c-40 -4 -40 27 1 103 18 35 36 73 40 84 4 11 10 26 13 33 4 9 -10
12 -54 12 -55 0 -62 -3 -87 -31 -14 -18 -35 -49 -46 -70 -11 -22 -24 -39 -29
-39 -11 0 -45 -61 -42 -74 2 -4 -5 -20 -15 -35 -19 -28 -43 -71 -43 -77 0 -2
17 -2 37 -1 l37 2 9 -64 c4 -35 14 -76 23 -92 8 -16 17 -60 19 -97 2 -37 2
-57 -1 -44 -3 12 -10 22 -15 22 -5 0 -15 12 -21 28 -7 15 -19 36 -29 47 -9 11
-33 52 -54 90 -21 39 -41 72 -45 75 -4 3 -19 24 -34 48 -16 26 -39 48 -56 53
-30 11 -65 53 -65 79 0 10 -10 15 -30 15 -29 0 -30 -1 -27 -41 2 -23 -1 -60
-7 -82 -12 -43 -27 -52 -95 -52 -22 0 -47 -6 -55 -14 -18 -16 -152 -39 -175
-30 -15 6 -16 -140 -16 -1575 l0 -1581 233 0 233 0 13 104 c18 159 40 212 122
304 35 38 58 54 91 63 98 27 103 -15 12 -107 -108 -109 -161 -205 -179 -322
l-7 -42 1956 0 1956 0 0 280 0 280 -42 -7 c-47 -9 -258 -8 -298 0 -14 3 -46 6
-72 6 -38 1 -46 4 -42 16 5 11 -1 15 -25 15 -20 0 -31 -5 -31 -15 0 -11 -11
-13 -57 -9 -73 7 -77 7 -143 0 -30 -3 -102 -10 -160 -14 -58 -4 -110 -10 -116
-14 -15 -10 -299 -21 -355 -13 -52 7 -58 14 -34 42 8 10 15 21 15 26 0 8 2 11
62 81 24 27 43 56 43 65 0 11 7 15 22 13 25 -4 83 35 83 55 0 7 11 18 24 22
33 13 40 38 14 52 -20 11 -20 12 9 30 16 10 38 36 49 56 10 21 28 46 39 55 11
9 20 23 20 30 1 7 7 11 15 9 46 -12 63 -13 69 -3 4 6 21 12 39 14 28 2 32 6
33 33 0 16 3 24 6 18 8 -20 33 11 33 41 0 15 8 31 20 38 11 7 20 18 20 24 0 6
14 17 30 24 30 12 60 54 60 83 0 32 33 41 135 36 11 -1 14 -3 8 -6 -7 -3 -13
-17 -13 -32 0 -15 -3 -30 -6 -34 -3 -3 -7 -48 -8 -99 -2 -51 -6 -102 -11 -112
-5 -11 -4 -31 2 -47 12 -31 -2 -40 -24 -18 -9 9 -16 8 -28 -4 -10 -10 -27 -15
-47 -12 -32 4 -58 -8 -58 -28 0 -9 38 -6 86 8 13 4 27 0 37 -9 9 -9 18 -12 22
-7 7 13 32 3 39 -15 3 -8 1 -23 -6 -33 -18 -30 -3 -51 37 -51 19 0 44 4 55 10
11 5 29 15 41 21 42 21 68 -36 29 -64 -11 -8 -17 -17 -13 -20 3 -4 1 -7 -6 -7
-8 0 -11 -11 -9 -27 3 -24 8 -28 33 -28 25 0 30 4 33 28 2 18 9 27 22 27 25 0
35 31 15 46 -21 15 -31 79 -16 98 7 9 8 22 3 37 -11 28 3 66 33 91 20 16 19
16 -12 35 -18 10 -33 21 -33 26 0 7 62 12 119 9 38 -2 54 13 45 40 -6 19 15
89 30 100 5 3 10 56 11 117 l3 110 43 43 c25 25 44 37 47 30 2 -7 10 -12 18
-12 12 0 14 110 14 750 l0 749 -27 15 -28 15 24 1 c16 0 21 4 15 9 -10 11
-161 18 -170 8 -3 -3 -12 -3 -19 -1 -7 3 -22 -6 -33 -21 l-20 -25 -44 40 c-23
22 -58 42 -76 46 -42 8 -248 -13 -272 -29 -11 -6 -23 -8 -27 -3 -8 8 113 129
157 158 36 23 18 33 -32 18 -24 -6 -57 -13 -75 -14 -17 -2 -38 -8 -46 -14 -8
-7 -16 -9 -20 -6 -3 3 -14 1 -24 -4 -12 -7 -40 -6 -85 3 -37 7 -70 10 -73 7
-9 -9 -6 -51 5 -57 16 -10 12 -55 -5 -61 -8 -4 -21 -1 -29 5 -7 6 -16 8 -19 4
-4 -3 -7 -1 -7 5 0 20 -110 180 -141 207 -27 22 -95 47 -154 57 -10 2 -22 14
-26 28 -4 14 -7 18 -8 9 -1 -9 -10 -28 -21 -42 -11 -14 -20 -33 -20 -44 0 -31
-27 -96 -34 -84 -4 6 -14 11 -23 11 -12 0 -14 -7 -9 -30 4 -24 1 -35 -19 -52
-14 -12 -25 -30 -25 -40 0 -10 -6 -18 -14 -18 -8 0 -21 -6 -28 -12 -23 -22
-76 -49 -81 -41 -2 5 -12 38 -22 76 -19 69 -27 76 -59 52 -11 -8 -37 -15 -58
-15 -25 0 -45 -7 -58 -20 -11 -11 -20 -17 -20 -12 0 4 -11 19 -23 34 -20 23
-24 37 -21 87 2 51 -1 60 -17 64 -34 9 -22 28 14 22 17 -3 62 -7 98 -9 36 -2
71 -6 76 -9 18 -11 52 64 41 92 -6 18 -4 29 9 43 15 17 16 23 3 60 -8 23 -24
46 -35 52 -11 6 -36 23 -55 37 -19 15 -44 29 -55 33 -11 3 -49 33 -84 67 -80
76 -74 89 47 91 29 0 55 4 57 8 3 4 25 3 50 -3 58 -13 73 0 82 69 8 73 9 73
16 80 10 10 9 51 -2 72 -13 24 -24 54 -25 72 -2 24 -33 63 -46 55 -12 -7 -108
13 -126 27 -7 5 -18 2 -28 -7z m562 -857 c16 -16 15 -38 -2 -38 -18 0 -39 27
-31 40 8 13 18 13 33 -2z m-118 -233 c0 -8 -4 -15 -10 -15 -5 0 -10 7 -10 15
0 8 5 15 10 15 6 0 10 -7 10 -15z m-2780 -35 c0 -12 -8 -12 -35 0 -18 8 -17 9
8 9 15 1 27 -3 27 -9z m2772 -28 c-7 -2 -12 -11 -12 -19 0 -14 3 -14 20 2 24
21 22 23 45 -35 61 -153 70 -205 79 -432 5 -114 5 -117 -17 -120 -12 -2 -21
-7 -19 -13 2 -5 12 -8 24 -7 20 4 21 1 15 -75 -8 -92 -20 -135 -77 -263 -93
-214 -143 -289 -278 -422 -128 -126 -155 -148 -256 -207 -23 -13 -61 -40 -86
-61 -25 -20 -63 -49 -85 -63 -59 -40 -96 -67 -154 -114 -41 -33 -56 -41 -69
-33 -17 9 -135 128 -203 206 -45 50 -67 93 -61 118 9 40 40 82 88 118 27 21
53 47 58 58 5 11 16 22 26 25 9 3 34 21 56 41 88 80 142 124 151 124 5 0 19
10 31 23 11 12 41 31 66 42 25 11 46 25 46 32 0 6 10 15 23 18 12 4 36 18 54
31 17 13 36 24 42 24 6 0 28 18 50 40 22 22 45 40 53 40 7 0 26 13 41 29 15
17 37 33 48 36 12 4 32 33 51 73 18 37 45 89 61 117 17 28 30 67 32 92 1 23
10 49 19 58 18 19 21 95 6 160 -7 31 -6 41 6 48 8 4 14 23 14 42 0 25 6 37 21
45 17 10 18 14 7 23 -36 31 -42 46 -23 67 10 11 23 20 29 20 18 0 56 67 56 99
0 29 21 48 29 28 2 -6 -1 -13 -7 -15z m-1738 -28 c20 -8 21 -44 2 -44 -7 0
-16 11 -18 25 -6 28 -6 27 16 19z m751 -63 c-3 -6 -12 -11 -19 -11 -8 0 -19
-7 -26 -15 -7 -8 -24 -14 -39 -14 -17 1 -20 3 -8 6 9 2 17 11 17 19 0 15 1 15
38 19 12 1 25 5 29 9 9 9 16 -1 8 -13z m731 -327 c-3 -9 -6 -18 -6 -20 0 -2
-9 -4 -20 -4 -25 0 -25 9 -2 26 23 18 35 17 28 -2z m527 -791 c-3 -27 -9 -50
-13 -53 -4 -3 -10 -17 -13 -31 -4 -14 -18 -42 -32 -63 -14 -20 -25 -41 -25
-46 0 -5 -15 -24 -32 -42 -18 -18 -33 -35 -33 -38 -4 -27 -23 -61 -51 -88 -19
-18 -34 -38 -34 -44 0 -6 -9 -25 -19 -42 -10 -17 -22 -45 -26 -63 -3 -17 -13
-37 -21 -44 -8 -7 -29 -40 -45 -73 -17 -34 -37 -68 -45 -77 -8 -8 -14 -34 -14
-57 0 -30 -5 -44 -19 -51 -17 -9 -31 -51 -37 -104 -1 -10 -11 -28 -23 -41 -11
-12 -21 -34 -21 -49 0 -15 -4 -27 -9 -27 -9 0 -21 -43 -25 -96 -2 -17 -6 -37
-11 -43 -4 -7 -8 -38 -9 -69 -1 -32 -5 -62 -9 -69 -4 -6 -4 -18 -1 -27 5 -12
0 -16 -17 -17 -60 -3 -95 4 -112 22 -10 10 -15 19 -12 19 11 0 -30 62 -48 71
-10 6 -15 14 -12 20 4 5 3 19 0 30 -6 17 -13 20 -36 15 -19 -4 -29 -1 -29 7 0
6 -26 36 -58 67 -31 30 -66 68 -77 83 -11 15 -35 36 -52 47 -18 11 -33 26 -33
35 0 11 -10 15 -35 15 -55 0 -45 29 22 68 31 18 63 32 71 30 8 -2 20 -17 26
-35 14 -40 16 -42 56 -46 33 -4 85 27 75 44 -3 4 4 23 15 43 15 25 19 44 15
68 -5 29 -2 36 31 63 20 17 50 49 67 73 17 23 36 42 43 42 7 0 23 14 36 31 13
17 40 49 61 72 20 22 37 43 37 47 0 4 37 38 83 76 45 38 90 79 100 92 10 12
22 20 27 17 15 -9 57 13 91 47 21 21 45 35 63 36 16 1 43 10 60 20 25 15 30
24 28 46 -3 24 0 27 17 21 17 -5 20 -1 23 37 2 28 7 42 16 41 6 -2 12 6 12 17
0 11 4 20 10 20 6 0 7 -19 3 -47z m-2153 -172 c0 -11 -4 -23 -10 -26 -6 -4
-10 5 -10 19 0 14 5 26 10 26 6 0 10 -9 10 -19z m1680 -65 c0 -2 -7 -6 -15
-10 -8 -3 -15 -1 -15 4 0 6 7 10 15 10 8 0 15 -2 15 -4z m-30 -41 c0 -8 -11
-17 -25 -21 -37 -9 -42 2 -8 20 35 19 33 19 33 1z m-1603 -92 c28 -90 43 -157
43 -189 0 -15 9 -41 19 -58 10 -17 22 -50 26 -73 4 -24 10 -43 15 -43 4 0 11
-23 15 -50 4 -28 13 -56 20 -63 7 -8 18 -39 25 -70 6 -30 20 -67 31 -80 23
-30 25 -75 4 -91 -14 -10 -14 -15 1 -45 9 -18 19 -54 22 -80 3 -31 11 -52 26
-64 20 -16 20 -18 4 -28 -10 -5 -18 -17 -18 -25 0 -30 -116 -48 -138 -21 -5 6
-12 35 -15 62 -3 28 -15 111 -27 185 -12 74 -23 153 -24 175 -4 61 -36 304
-47 361 -5 28 -7 58 -3 67 3 10 1 31 -6 47 -11 26 -10 33 4 49 21 23 21 51 0
51 -11 0 -14 5 -10 16 3 9 6 20 6 25 0 22 8 5 27 -58z m2663 56 c0 -5 -4 -7
-10 -4 -5 3 -10 1 -10 -6 0 -7 -3 -10 -6 -6 -8 7 4 27 17 27 5 0 9 -5 9 -11z
m-27 -53 c7 -16 -1 -26 -20 -26 -7 0 -13 9 -13 20 0 23 25 27 33 6z m291 -35
c3 -5 -1 -14 -9 -21 -36 -30 -1 -57 55 -45 17 4 30 4 30 0 0 -9 -30 -38 -71
-68 -42 -32 -74 -34 -89 -8 -14 27 -13 34 4 28 8 -3 17 1 20 9 3 8 11 14 18
13 35 -4 38 5 3 10 -46 7 -56 28 -31 66 16 25 59 34 70 16z m-299 -21 c20 -32
-25 -67 -60 -47 -17 9 -16 12 11 33 32 27 40 29 49 14z m215 -70 c0 -5 -4 -10
-10 -10 -5 0 -10 5 -10 10 0 6 5 10 10 10 6 0 10 -4 10 -10z m-2530 -56 c0 -8
-4 -12 -10 -9 -5 3 -10 10 -10 16 0 5 5 9 10 9 6 0 10 -7 10 -16z m-910 1 c0
-3 -5 -14 -12 -24 -15 -24 -4 -51 22 -51 24 0 26 -17 4 -42 -14 -14 -14 -20
-4 -33 7 -8 10 -24 7 -35 -3 -14 0 -20 10 -20 13 0 14 -8 9 -42 -4 -23 -12
-45 -18 -49 -5 -4 -7 -16 -3 -28 5 -17 2 -21 -14 -21 -12 0 -21 6 -21 14 0 8
-9 17 -19 21 -27 8 -35 35 -15 49 19 14 15 51 -6 51 -20 0 -24 74 -5 95 8 9
15 39 17 68 3 46 5 52 26 52 12 0 22 -2 22 -5z m981 -132 c0 -10 3 -13 5 -6 7
16 44 -16 38 -32 -3 -7 2 -15 10 -18 9 -4 16 -15 16 -25 0 -10 9 -27 20 -37
20 -18 28 -51 10 -40 -5 3 -10 -2 -10 -11 0 -10 3 -14 7 -11 12 13 33 -16 33
-45 0 -18 8 -36 21 -47 13 -10 22 -30 23 -51 1 -21 7 -35 15 -35 13 0 40 -41
41 -63 0 -6 11 -35 25 -64 14 -28 25 -56 25 -60 0 -5 8 -21 17 -35 22 -33 42
-90 35 -98 -3 -3 -27 -5 -53 -5 -44 0 -50 3 -64 30 -8 16 -15 34 -15 40 0 5
-11 33 -25 62 -14 28 -25 59 -25 68 0 17 -26 88 -60 165 -12 28 -27 66 -34 85
-8 19 -25 68 -40 108 -15 40 -24 76 -21 81 3 5 1 12 -5 16 -15 9 -50 85 -50
108 0 15 8 10 30 -21 17 -23 30 -50 31 -59z m2559 27 c0 -13 -7 -20 -18 -20
-10 0 -23 -5 -29 -11 -6 -6 -16 -8 -22 -5 -16 10 -1 36 20 36 10 0 19 5 19 10
0 6 7 10 15 10 8 0 15 -9 15 -20z m-2088 -72 c-9 -9 -15 -9 -24 0 -9 9 -7 12
12 12 19 0 21 -3 12 -12z m-48 -71 c3 -12 1 -26 -3 -30 -11 -11 -51 27 -51 47
0 22 47 7 54 -17z m1990 -10 c-2 -52 -4 -59 -16 -55 -13 5 -19 51 -10 76 8 22
27 7 26 -21z m-1954 -47 c0 -5 -2 -10 -4 -10 -3 0 -8 5 -11 10 -3 6 -1 10 4
10 6 0 11 -4 11 -10z m-33 -36 c-9 -9 -28 6 -21 18 4 6 10 6 17 -1 6 -6 8 -13
4 -17z m112 -99 c18 -10 13 -25 -8 -25 -26 0 -34 15 -26 48 7 26 7 26 15 6 5
-12 13 -25 19 -29z m-29 -49 c7 -9 23 -16 36 -16 25 0 79 -49 89 -81 4 -11 11
-19 16 -19 6 0 8 -17 5 -40 -4 -39 9 -64 24 -41 10 17 34 -14 26 -35 -9 -23 3
-37 19 -24 10 8 15 8 21 -1 4 -6 0 -16 -10 -21 -23 -13 -20 -28 7 -29 12 -1 2
-5 -22 -10 -61 -12 -90 6 -120 75 -13 31 -39 72 -57 92 -19 19 -34 44 -34 55
0 11 -9 32 -19 47 -10 15 -22 40 -25 55 -6 25 -5 27 12 18 10 -5 24 -17 32
-25z m-1342 -118 c2 -12 -3 -18 -13 -18 -11 0 -15 -5 -11 -15 7 -20 -3 -45
-19 -45 -24 0 -34 43 -16 73 18 31 54 34 59 5z m-2 -92 c8 -8 14 -20 14 -27 0
-7 6 -20 14 -28 7 -9 16 -28 20 -43 6 -25 4 -28 -20 -28 -15 0 -33 -8 -40 -17
-7 -10 -15 -15 -18 -12 -8 8 -9 60 -1 95 4 20 3 34 -4 38 -8 5 -7 11 2 21 15
18 16 18 33 1z"/>
<path d="M3408 4254 c-5 -4 -8 -16 -8 -28 0 -14 3 -17 11 -9 6 6 9 19 7 28 -1
9 -6 13 -10 9z"/>
<path d="M2890 4231 c0 -12 5 -21 10 -21 6 0 10 6 10 14 0 8 -4 18 -10 21 -5
3 -10 -3 -10 -14z"/>
<path d="M0 4155 c0 -9 6 -12 15 -9 8 4 15 7 15 9 0 2 -7 5 -15 9 -9 3 -15 0
-15 -9z"/>
<path d="M75 4150 c27 -12 35 -12 35 0 0 6 -12 10 -27 9 -25 0 -26 -1 -8 -9z"/>
<path d="M3372 4136 c-6 -15 -11 -48 -10 -74 1 -39 2 -41 5 -12 2 19 8 45 14
56 6 12 9 30 7 40 -2 14 -5 13 -16 -10z"/>
<path d="M4 4067 c-3 -9 -4 -24 -2 -34 3 -15 15 -18 82 -21 46 -2 84 2 90 8 5
5 18 10 28 10 10 0 18 5 18 10 0 6 -9 10 -21 10 -11 0 -28 4 -37 9 -9 5 -47
12 -84 16 -57 6 -69 5 -74 -8z"/>
<path d="M4294 4051 c-41 -25 -47 -36 -29 -51 8 -7 15 -21 15 -31 0 -24 16
-25 29 -1 6 9 11 11 11 5 0 -18 27 -16 34 2 3 8 12 15 21 15 24 0 57 36 53 57
-5 27 -92 30 -134 4z"/>
<path d="M2153 3983 c-19 -7 -16 -23 10 -44 24 -20 46 -23 96 -13 37 8 39 16
9 44 -21 19 -83 27 -115 13z"/>
<path d="M3330 3970 c0 -5 5 -10 10 -10 6 0 10 5 10 10 0 6 -4 10 -10 10 -5 0
-10 -4 -10 -10z"/>
<path d="M4200 3966 c0 -11 9 -16 26 -16 31 0 28 23 -4 28 -15 2 -22 -2 -22
-12z"/>
<path d="M3313 3885 c-13 -41 2 -49 17 -9 12 31 13 44 2 44 -5 0 -13 -16 -19
-35z"/>
<path d="M341 3755 c-1 -77 -6 -175 -9 -217 -7 -77 -7 -78 16 -78 l24 0 -7
143 c-3 78 -10 176 -14 217 -7 70 -8 66 -10 -65z"/>
<path d="M4410 3875 c-7 -8 -33 -24 -58 -35 -79 -35 -105 -70 -53 -70 17 0 33
-4 36 -10 11 -18 51 -11 73 13 27 28 28 44 5 50 -17 4 -17 5 0 6 12 1 17 10
17 31 0 34 -3 36 -20 15z"/>
<path d="M4015 3851 c-28 -6 -30 -9 -32 -56 -2 -39 0 -45 7 -27 7 16 18 22 39
22 47 0 81 20 81 47 0 20 -5 23 -32 22 -18 -1 -46 -4 -63 -8z"/>
<path d="M109 3822 c-10 -26 -6 -323 5 -341 11 -17 26 -13 26 7 0 11 9 45 20
78 29 82 47 248 30 269 -19 23 -70 15 -81 -13z"/>
<path d="M925 3820 c11 -18 63 -41 70 -30 3 6 0 10 -8 10 -8 0 -20 7 -27 15
-14 17 -45 21 -35 5z"/>
<path d="M3300 3777 c-16 -13 -40 -60 -40 -79 0 -7 5 -6 15 2 11 9 19 10 28 1
11 -9 14 -1 15 39 0 28 0 50 -1 50 -1 0 -9 -6 -17 -13z"/>
<path d="M3415 3708 c-17 -56 -12 -98 10 -98 10 0 35 75 35 105 0 11 -41 4
-45 -7z"/>
<path d="M4161 3707 c-6 -8 -8 -17 -5 -20 8 -7 54 14 54 25 0 13 -36 9 -49 -5z"/>
<path d="M3751 3674 c0 -11 3 -14 6 -6 3 7 2 16 -1 19 -3 4 -6 -2 -5 -13z"/>
<path d="M4187 3656 c-9 -7 -28 -11 -42 -8 -19 3 -25 0 -25 -12 0 -10 -5 -14
-10 -11 -6 4 -8 12 -4 18 3 7 -2 3 -10 -7 -9 -11 -16 -14 -16 -7 0 7 -5 9 -11
6 -6 -4 -8 -13 -5 -20 2 -7 0 -17 -6 -23 -6 -6 -8 -15 -4 -20 9 -15 106 22
138 53 39 40 36 62 -5 31z"/>
<path d="M3212 3550 c-7 -11 -9 -20 -4 -20 4 0 13 9 20 20 7 11 9 20 4 20 -4
0 -13 -9 -20 -20z"/>
<path d="M3970 3530 c0 -5 5 -10 11 -10 5 0 7 5 4 10 -3 6 -8 10 -11 10 -2 0
-4 -4 -4 -10z"/>
<path d="M3410 3470 c0 -6 7 -10 15 -10 8 0 15 2 15 4 0 2 -7 6 -15 10 -8 3
-15 1 -15 -4z"/>
<path d="M151 3444 c0 -11 3 -14 6 -6 3 7 2 16 -1 19 -3 4 -6 -2 -5 -13z"/>
<path d="M150 3366 c0 -85 24 -71 32 19 2 21 -2 30 -14 33 -16 3 -18 -4 -18
-52z"/>
<path d="M1173 3305 c-3 -9 -3 -18 0 -22 10 -10 37 6 37 22 0 20 -29 20 -37 0z"/>
<path d="M1355 3191 c-6 -11 9 -23 19 -14 9 9 7 23 -3 23 -6 0 -12 -4 -16 -9z"/>
<path d="M1053 3100 c0 -25 2 -35 4 -22 2 12 2 32 0 45 -2 12 -4 2 -4 -23z"/>
<path d="M4215 1100 c4 -6 11 -8 16 -5 14 9 11 15 -7 15 -8 0 -12 -5 -9 -10z"/>
<path d="M3624 1079 c-17 -19 -17 -20 2 -40 18 -17 24 -18 47 -8 29 13 34 31
15 46 -27 21 -46 21 -64 2z"/>
<path d="M3730 1090 c0 -5 5 -10 11 -10 5 0 7 5 4 10 -3 6 -8 10 -11 10 -2 0
-4 -4 -4 -10z"/>
<path d="M4168 1003 c6 -2 18 -2 25 0 6 3 1 5 -13 5 -14 0 -19 -2 -12 -5z"/>
<path d="M4163 919 c-39 -25 -43 -49 -9 -49 26 0 70 45 60 61 -8 13 -15 11
-51 -12z"/>
<path d="M4273 855 c-29 -20 -29 -36 -2 -53 27 -17 31 -12 27 32 -3 36 -3 36
-25 21z"/>
<path d="M4160 820 c-12 -8 -9 -10 13 -10 16 0 26 4 22 10 -8 12 -16 12 -35 0z"/>
<path d="M3942 781 c-11 -7 -10 -10 3 -15 29 -11 55 -7 55 9 0 16 -36 20 -58
6z"/>
<path d="M4400 752 c0 -16 7 -37 15 -48 13 -18 14 -15 15 29 0 35 -4 47 -15
47 -10 0 -15 -10 -15 -28z"/>
<path d="M4167 764 c-16 -16 -6 -34 19 -34 19 0 25 5 22 17 -3 19 -29 29 -41
17z"/>
<path d="M4180 575 c0 -8 4 -15 10 -15 5 0 7 7 4 15 -4 8 -8 15 -10 15 -2 0
-4 -7 -4 -15z"/>
</g>
</svg>
